<mxfile host="app.diagrams.net" modified="2024-07-01T06:48:25.930Z" agent="Mozilla/5.0 (Macintosh; Intel Mac OS X 10_15_7) AppleWebKit/537.36 (KHTML, like Gecko) Chrome/126.0.0.0 Safari/537.36" etag="W4C7l2CmP5Rn5Njx5p2i" version="24.6.4" type="google">
  <diagram name="Activity Diagram" id="R9e8nta6aA1Hl9PDaqUL">
    <mxGraphModel grid="1" page="1" gridSize="10" guides="1" tooltips="1" connect="1" arrows="1" fold="1" pageScale="1" pageWidth="827" pageHeight="1169" math="0" shadow="0">
      <root>
        <mxCell id="0" />
        <mxCell id="1" parent="0" />
        <mxCell id="Ks5z1FOKRckp7h52bxmP-1" value="" style="ellipse;html=1;shape=startState;fillColor=#000000;strokeColor=#000000;" vertex="1" parent="1">
          <mxGeometry x="125" y="100" width="30" height="30" as="geometry" />
        </mxCell>
        <mxCell id="Ks5z1FOKRckp7h52bxmP-2" value="" style="edgeStyle=orthogonalEdgeStyle;html=1;verticalAlign=bottom;endArrow=open;endSize=8;strokeColor=#000000;rounded=0;" edge="1" parent="1" source="Ks5z1FOKRckp7h52bxmP-1" target="Ks5z1FOKRckp7h52bxmP-6">
          <mxGeometry relative="1" as="geometry">
            <mxPoint x="140" y="180" as="targetPoint" />
          </mxGeometry>
        </mxCell>
        <mxCell id="Ks5z1FOKRckp7h52bxmP-9" style="edgeStyle=orthogonalEdgeStyle;rounded=0;orthogonalLoop=1;jettySize=auto;html=1;" edge="1" parent="1" source="Ks5z1FOKRckp7h52bxmP-6" target="Ks5z1FOKRckp7h52bxmP-8">
          <mxGeometry relative="1" as="geometry" />
        </mxCell>
        <mxCell id="Ks5z1FOKRckp7h52bxmP-6" value="Add the message to the buffer" style="rounded=0;whiteSpace=wrap;html=1;fontSize=14;fontStyle=0" vertex="1" parent="1">
          <mxGeometry x="80" y="180" width="120" height="60" as="geometry" />
        </mxCell>
        <mxCell id="Ks5z1FOKRckp7h52bxmP-17" style="edgeStyle=orthogonalEdgeStyle;rounded=0;orthogonalLoop=1;jettySize=auto;html=1;" edge="1" parent="1" source="Ks5z1FOKRckp7h52bxmP-8" target="Ks5z1FOKRckp7h52bxmP-16">
          <mxGeometry relative="1" as="geometry" />
        </mxCell>
        <mxCell id="Ks5z1FOKRckp7h52bxmP-18" value="yes" style="edgeLabel;html=1;align=center;verticalAlign=middle;resizable=0;points=[];fontSize=14;" connectable="0" vertex="1" parent="Ks5z1FOKRckp7h52bxmP-17">
          <mxGeometry x="-0.2828" y="2" relative="1" as="geometry">
            <mxPoint x="-27" y="-18" as="offset" />
          </mxGeometry>
        </mxCell>
        <mxCell id="Ks5z1FOKRckp7h52bxmP-24" style="edgeStyle=orthogonalEdgeStyle;rounded=0;orthogonalLoop=1;jettySize=auto;html=1;" edge="1" parent="1" source="Ks5z1FOKRckp7h52bxmP-8" target="Ks5z1FOKRckp7h52bxmP-21">
          <mxGeometry relative="1" as="geometry" />
        </mxCell>
        <mxCell id="Ks5z1FOKRckp7h52bxmP-26" value="&lt;font style=&quot;font-size: 14px;&quot;&gt;No&lt;/font&gt;" style="edgeLabel;html=1;align=center;verticalAlign=middle;resizable=0;points=[];" connectable="0" vertex="1" parent="Ks5z1FOKRckp7h52bxmP-24">
          <mxGeometry x="-0.8929" y="4" relative="1" as="geometry">
            <mxPoint x="-29" as="offset" />
          </mxGeometry>
        </mxCell>
        <mxCell id="Ks5z1FOKRckp7h52bxmP-8" value="Is the buffer full" style="rhombus;whiteSpace=wrap;html=1;fontSize=14;" vertex="1" parent="1">
          <mxGeometry x="100" y="290" width="80" height="80" as="geometry" />
        </mxCell>
        <mxCell id="Ks5z1FOKRckp7h52bxmP-10" value="Log the message" style="shape=umlFrame;whiteSpace=wrap;html=1;pointerEvents=0;width=150;height=30;fontSize=14;" vertex="1" parent="1">
          <mxGeometry x="40" y="40" width="320" height="640" as="geometry" />
        </mxCell>
        <mxCell id="Ks5z1FOKRckp7h52bxmP-13" value="Log the error" style="shape=umlFrame;whiteSpace=wrap;html=1;pointerEvents=0;width=150;height=30;fontSize=14;" vertex="1" parent="1">
          <mxGeometry x="380" y="40" width="220" height="640" as="geometry" />
        </mxCell>
        <mxCell id="Ks5z1FOKRckp7h52bxmP-15" value="Flush" style="shape=umlFrame;whiteSpace=wrap;html=1;pointerEvents=0;width=150;height=30;fontSize=14;" vertex="1" parent="1">
          <mxGeometry x="620" y="40" width="580" height="640" as="geometry" />
        </mxCell>
        <mxCell id="Ks5z1FOKRckp7h52bxmP-20" style="edgeStyle=orthogonalEdgeStyle;rounded=0;orthogonalLoop=1;jettySize=auto;html=1;" edge="1" parent="1" source="Ks5z1FOKRckp7h52bxmP-16" target="Ks5z1FOKRckp7h52bxmP-29">
          <mxGeometry relative="1" as="geometry">
            <mxPoint x="265" y="510" as="targetPoint" />
            <Array as="points">
              <mxPoint x="265" y="480" />
              <mxPoint x="265" y="480" />
            </Array>
          </mxGeometry>
        </mxCell>
        <mxCell id="Ks5z1FOKRckp7h52bxmP-16" value="Create a new file" style="rounded=0;whiteSpace=wrap;html=1;fontSize=14;fontStyle=0" vertex="1" parent="1">
          <mxGeometry x="205" y="380" width="120" height="60" as="geometry" />
        </mxCell>
        <mxCell id="Ks5z1FOKRckp7h52bxmP-21" value="" style="ellipse;html=1;shape=endState;fillColor=#000000;strokeColor=#FFFFFF;" vertex="1" parent="1">
          <mxGeometry x="125" y="585" width="30" height="30" as="geometry" />
        </mxCell>
        <mxCell id="Ks5z1FOKRckp7h52bxmP-31" style="edgeStyle=orthogonalEdgeStyle;rounded=0;orthogonalLoop=1;jettySize=auto;html=1;" edge="1" parent="1" source="Ks5z1FOKRckp7h52bxmP-29" target="Ks5z1FOKRckp7h52bxmP-21">
          <mxGeometry relative="1" as="geometry">
            <Array as="points">
              <mxPoint x="265" y="600" />
            </Array>
          </mxGeometry>
        </mxCell>
        <mxCell id="Ks5z1FOKRckp7h52bxmP-29" value="Flush the message into it" style="rounded=1;whiteSpace=wrap;html=1;fontSize=14;fontStyle=0" vertex="1" parent="1">
          <mxGeometry x="205" y="490" width="120" height="60" as="geometry" />
        </mxCell>
        <mxCell id="Ks5z1FOKRckp7h52bxmP-33" value="" style="ellipse;html=1;shape=startState;fillColor=#000000;strokeColor=#000000;" vertex="1" parent="1">
          <mxGeometry x="465" y="100" width="30" height="30" as="geometry" />
        </mxCell>
        <mxCell id="Ks5z1FOKRckp7h52bxmP-34" value="" style="edgeStyle=orthogonalEdgeStyle;html=1;verticalAlign=bottom;endArrow=open;endSize=8;strokeColor=#000000;rounded=0;" edge="1" parent="1" source="Ks5z1FOKRckp7h52bxmP-33" target="Ks5z1FOKRckp7h52bxmP-53">
          <mxGeometry relative="1" as="geometry">
            <mxPoint x="480" y="180" as="targetPoint" />
          </mxGeometry>
        </mxCell>
        <mxCell id="Ks5z1FOKRckp7h52bxmP-51" value="" style="ellipse;html=1;shape=endState;fillColor=#000000;strokeColor=#FFFFFF;" vertex="1" parent="1">
          <mxGeometry x="465" y="290" width="30" height="30" as="geometry" />
        </mxCell>
        <mxCell id="Ks5z1FOKRckp7h52bxmP-52" style="edgeStyle=orthogonalEdgeStyle;rounded=0;orthogonalLoop=1;jettySize=auto;html=1;" edge="1" parent="1" source="Ks5z1FOKRckp7h52bxmP-53" target="Ks5z1FOKRckp7h52bxmP-51">
          <mxGeometry relative="1" as="geometry">
            <Array as="points">
              <mxPoint x="480" y="320" />
              <mxPoint x="480" y="320" />
            </Array>
          </mxGeometry>
        </mxCell>
        <mxCell id="Ks5z1FOKRckp7h52bxmP-53" value="Flush the error into error.log" style="rounded=1;whiteSpace=wrap;html=1;fontSize=14;fontStyle=0" vertex="1" parent="1">
          <mxGeometry x="420" y="180" width="120" height="60" as="geometry" />
        </mxCell>
        <mxCell id="Ks5z1FOKRckp7h52bxmP-54" value="" style="ellipse;html=1;shape=startState;fillColor=#000000;strokeColor=#000000;" vertex="1" parent="1">
          <mxGeometry x="820" y="90" width="30" height="30" as="geometry" />
        </mxCell>
        <mxCell id="Ks5z1FOKRckp7h52bxmP-55" value="" style="edgeStyle=orthogonalEdgeStyle;html=1;verticalAlign=bottom;endArrow=open;endSize=8;strokeColor=#000000;rounded=0;" edge="1" parent="1" source="Ks5z1FOKRckp7h52bxmP-54" target="Ks5z1FOKRckp7h52bxmP-58">
          <mxGeometry relative="1" as="geometry">
            <mxPoint x="835" y="170" as="targetPoint" />
          </mxGeometry>
        </mxCell>
        <mxCell id="Ks5z1FOKRckp7h52bxmP-61" style="edgeStyle=orthogonalEdgeStyle;rounded=0;orthogonalLoop=1;jettySize=auto;html=1;" edge="1" parent="1" source="Ks5z1FOKRckp7h52bxmP-58" target="Ks5z1FOKRckp7h52bxmP-60">
          <mxGeometry relative="1" as="geometry" />
        </mxCell>
        <mxCell id="Ks5z1FOKRckp7h52bxmP-58" value="Write the text into file" style="rounded=0;whiteSpace=wrap;html=1;fontSize=14;fontStyle=0" vertex="1" parent="1">
          <mxGeometry x="775" y="170" width="120" height="60" as="geometry" />
        </mxCell>
        <mxCell id="Ks5z1FOKRckp7h52bxmP-64" style="edgeStyle=orthogonalEdgeStyle;rounded=0;orthogonalLoop=1;jettySize=auto;html=1;" edge="1" parent="1" source="Ks5z1FOKRckp7h52bxmP-60" target="Ks5z1FOKRckp7h52bxmP-62">
          <mxGeometry relative="1" as="geometry" />
        </mxCell>
        <mxCell id="Ks5z1FOKRckp7h52bxmP-65" value="No" style="edgeLabel;html=1;align=center;verticalAlign=middle;resizable=0;points=[];fontSize=14;" connectable="0" vertex="1" parent="Ks5z1FOKRckp7h52bxmP-64">
          <mxGeometry x="-0.7485" y="-1" relative="1" as="geometry">
            <mxPoint x="5" y="-11" as="offset" />
          </mxGeometry>
        </mxCell>
        <mxCell id="Ks5z1FOKRckp7h52bxmP-67" style="edgeStyle=orthogonalEdgeStyle;rounded=0;orthogonalLoop=1;jettySize=auto;html=1;" edge="1" parent="1" source="Ks5z1FOKRckp7h52bxmP-60" target="Ks5z1FOKRckp7h52bxmP-63">
          <mxGeometry relative="1" as="geometry" />
        </mxCell>
        <mxCell id="Ks5z1FOKRckp7h52bxmP-75" value="&lt;font style=&quot;font-size: 14px;&quot;&gt;Yes&lt;/font&gt;" style="edgeLabel;html=1;align=center;verticalAlign=middle;resizable=0;points=[];" connectable="0" vertex="1" parent="Ks5z1FOKRckp7h52bxmP-67">
          <mxGeometry x="-0.7855" y="-2" relative="1" as="geometry">
            <mxPoint x="-28" y="-1" as="offset" />
          </mxGeometry>
        </mxCell>
        <mxCell id="Ks5z1FOKRckp7h52bxmP-60" value="Is writing successful" style="rhombus;whiteSpace=wrap;html=1;fontSize=14;" vertex="1" parent="1">
          <mxGeometry x="795" y="280" width="80" height="80" as="geometry" />
        </mxCell>
        <mxCell id="Ks5z1FOKRckp7h52bxmP-70" style="edgeStyle=orthogonalEdgeStyle;rounded=0;orthogonalLoop=1;jettySize=auto;html=1;" edge="1" parent="1" source="Ks5z1FOKRckp7h52bxmP-62" target="Ks5z1FOKRckp7h52bxmP-69">
          <mxGeometry relative="1" as="geometry">
            <Array as="points">
              <mxPoint x="1055" y="410" />
            </Array>
          </mxGeometry>
        </mxCell>
        <mxCell id="Ks5z1FOKRckp7h52bxmP-73" value="Yes" style="edgeLabel;html=1;align=center;verticalAlign=middle;resizable=0;points=[];fontSize=14;" connectable="0" vertex="1" parent="Ks5z1FOKRckp7h52bxmP-70">
          <mxGeometry x="-0.4788" y="2" relative="1" as="geometry">
            <mxPoint y="-18" as="offset" />
          </mxGeometry>
        </mxCell>
        <mxCell id="Ks5z1FOKRckp7h52bxmP-72" style="edgeStyle=orthogonalEdgeStyle;rounded=0;orthogonalLoop=1;jettySize=auto;html=1;" edge="1" parent="1" source="Ks5z1FOKRckp7h52bxmP-62" target="Ks5z1FOKRckp7h52bxmP-81">
          <mxGeometry relative="1" as="geometry">
            <Array as="points">
              <mxPoint x="955" y="460" />
              <mxPoint x="955" y="460" />
            </Array>
          </mxGeometry>
        </mxCell>
        <mxCell id="Ks5z1FOKRckp7h52bxmP-74" value="&lt;font style=&quot;font-size: 14px;&quot;&gt;No&lt;/font&gt;" style="edgeLabel;html=1;align=center;verticalAlign=middle;resizable=0;points=[];" connectable="0" vertex="1" parent="Ks5z1FOKRckp7h52bxmP-72">
          <mxGeometry x="-0.7491" y="1" relative="1" as="geometry">
            <mxPoint x="16" as="offset" />
          </mxGeometry>
        </mxCell>
        <mxCell id="Ks5z1FOKRckp7h52bxmP-62" value="Is the retry times &amp;lt; 3" style="rhombus;whiteSpace=wrap;html=1;fontSize=14;" vertex="1" parent="1">
          <mxGeometry x="915" y="370" width="80" height="80" as="geometry" />
        </mxCell>
        <mxCell id="Ks5z1FOKRckp7h52bxmP-68" style="edgeStyle=orthogonalEdgeStyle;rounded=0;orthogonalLoop=1;jettySize=auto;html=1;" edge="1" parent="1" source="Ks5z1FOKRckp7h52bxmP-63" target="Ks5z1FOKRckp7h52bxmP-66">
          <mxGeometry relative="1" as="geometry" />
        </mxCell>
        <mxCell id="Ks5z1FOKRckp7h52bxmP-80" value="&lt;font style=&quot;font-size: 14px;&quot;&gt;No&lt;/font&gt;" style="edgeLabel;html=1;align=center;verticalAlign=middle;resizable=0;points=[];" connectable="0" vertex="1" parent="Ks5z1FOKRckp7h52bxmP-68">
          <mxGeometry x="-0.6808" y="1" relative="1" as="geometry">
            <mxPoint x="14" as="offset" />
          </mxGeometry>
        </mxCell>
        <mxCell id="Ks5z1FOKRckp7h52bxmP-77" style="edgeStyle=orthogonalEdgeStyle;rounded=0;orthogonalLoop=1;jettySize=auto;html=1;" edge="1" parent="1" source="Ks5z1FOKRckp7h52bxmP-63" target="Ks5z1FOKRckp7h52bxmP-76">
          <mxGeometry relative="1" as="geometry">
            <Array as="points">
              <mxPoint x="710" y="500" />
            </Array>
          </mxGeometry>
        </mxCell>
        <mxCell id="Ks5z1FOKRckp7h52bxmP-79" value="Yes" style="edgeLabel;html=1;align=center;verticalAlign=middle;resizable=0;points=[];fontSize=14;" connectable="0" vertex="1" parent="Ks5z1FOKRckp7h52bxmP-77">
          <mxGeometry x="-0.4694" relative="1" as="geometry">
            <mxPoint x="15" y="-10" as="offset" />
          </mxGeometry>
        </mxCell>
        <mxCell id="Ks5z1FOKRckp7h52bxmP-63" value="Is the count of file &amp;gt; 100" style="rhombus;whiteSpace=wrap;html=1;fontSize=14;" vertex="1" parent="1">
          <mxGeometry x="795" y="460" width="80" height="80" as="geometry" />
        </mxCell>
        <mxCell id="Ks5z1FOKRckp7h52bxmP-66" value="" style="ellipse;html=1;shape=endState;fillColor=#000000;strokeColor=#FFFFFF;" vertex="1" parent="1">
          <mxGeometry x="820" y="630" width="30" height="30" as="geometry" />
        </mxCell>
        <mxCell id="Ks5z1FOKRckp7h52bxmP-71" style="edgeStyle=orthogonalEdgeStyle;rounded=0;orthogonalLoop=1;jettySize=auto;html=1;" edge="1" parent="1" source="Ks5z1FOKRckp7h52bxmP-69" target="Ks5z1FOKRckp7h52bxmP-58">
          <mxGeometry relative="1" as="geometry">
            <Array as="points">
              <mxPoint x="1170" y="410" />
              <mxPoint x="1170" y="200" />
            </Array>
          </mxGeometry>
        </mxCell>
        <mxCell id="Ks5z1FOKRckp7h52bxmP-69" value="Remove the oldest file" style="rounded=0;whiteSpace=wrap;html=1;fontSize=14;fontStyle=0" vertex="1" parent="1">
          <mxGeometry x="1030" y="380" width="120" height="60" as="geometry" />
        </mxCell>
        <mxCell id="Ks5z1FOKRckp7h52bxmP-78" style="edgeStyle=orthogonalEdgeStyle;rounded=0;orthogonalLoop=1;jettySize=auto;html=1;" edge="1" parent="1" source="Ks5z1FOKRckp7h52bxmP-76" target="Ks5z1FOKRckp7h52bxmP-66">
          <mxGeometry relative="1" as="geometry">
            <Array as="points">
              <mxPoint x="710" y="645" />
            </Array>
          </mxGeometry>
        </mxCell>
        <mxCell id="Ks5z1FOKRckp7h52bxmP-76" value="remove the oldest file" style="rounded=0;whiteSpace=wrap;html=1;fontSize=14;fontStyle=0" vertex="1" parent="1">
          <mxGeometry x="650" y="550" width="120" height="60" as="geometry" />
        </mxCell>
        <mxCell id="Ks5z1FOKRckp7h52bxmP-82" style="edgeStyle=orthogonalEdgeStyle;rounded=0;orthogonalLoop=1;jettySize=auto;html=1;" edge="1" parent="1" source="Ks5z1FOKRckp7h52bxmP-81" target="Ks5z1FOKRckp7h52bxmP-66">
          <mxGeometry relative="1" as="geometry">
            <Array as="points">
              <mxPoint x="955" y="645" />
            </Array>
          </mxGeometry>
        </mxCell>
        <mxCell id="Ks5z1FOKRckp7h52bxmP-81" value="Throw an error" style="rounded=0;whiteSpace=wrap;html=1;fontSize=14;fontStyle=0" vertex="1" parent="1">
          <mxGeometry x="895" y="550" width="120" height="60" as="geometry" />
        </mxCell>
      </root>
    </mxGraphModel>
  </diagram>
</mxfile>
